<?xml version="1.0" encoding="UTF-8" standalone="no"?>
<svg
   xmlns:dc="http://purl.org/dc/elements/1.1/"
   xmlns:cc="http://creativecommons.org/ns#"
   xmlns:rdf="http://www.w3.org/1999/02/22-rdf-syntax-ns#"
   xmlns:svg="http://www.w3.org/2000/svg"
   xmlns="http://www.w3.org/2000/svg"
   xmlns:sodipodi="http://sodipodi.sourceforge.net/DTD/sodipodi-0.dtd"
   xmlns:inkscape="http://www.inkscape.org/namespaces/inkscape"
   width="210mm"
   height="297mm"
   viewBox="0 0 210 297"
   version="1.1"
   id="svg8"
   inkscape:version="1.0.1 (3bc2e813f5, 2020-09-07)"
   sodipodi:docname="adia_vs_mcdb.svg">
  <defs
     id="defs2">
    <clipPath
       clipPathUnits="userSpaceOnUse"
       id="clipPath48">
      <path
         d="m 802.535,3.551 h 447.516 V 417.313 H 802.535 Z"
         id="path46" />
    </clipPath>
    <clipPath
       clipPathUnits="userSpaceOnUse"
       id="clipPath58">
      <path
         d="M 0,0 H 1257 V 859 H 0 Z"
         id="path56" />
    </clipPath>
    <clipPath
       clipPathUnits="userSpaceOnUse"
       id="clipPath74">
      <path
         d="M 0,0 H 1257 V 859 H 0 Z"
         id="path72" />
    </clipPath>
  </defs>
  <sodipodi:namedview
     id="base"
     pagecolor="#ffffff"
     bordercolor="#666666"
     borderopacity="1.0"
     inkscape:pageopacity="0.0"
     inkscape:pageshadow="2"
     inkscape:zoom="0.7"
     inkscape:cx="684.62987"
     inkscape:cy="-244.10183"
     inkscape:document-units="mm"
     inkscape:current-layer="layer1"
     inkscape:document-rotation="0"
     showgrid="false"
     inkscape:window-width="1920"
     inkscape:window-height="1055"
     inkscape:window-x="-7"
     inkscape:window-y="-7"
     inkscape:window-maximized="1" />
  <metadata
     id="metadata5">
    <rdf:RDF>
      <cc:Work
         rdf:about="">
        <dc:format>image/svg+xml</dc:format>
        <dc:type
           rdf:resource="http://purl.org/dc/dcmitype/StillImage" />
        <dc:title></dc:title>
      </cc:Work>
    </rdf:RDF>
  </metadata>
  <g
     inkscape:label="Layer 1"
     inkscape:groupmode="layer"
     id="layer1">
    <g
       id="g20"
       transform="matrix(0.35277777,0,0,0.35277777,-16.690325,-215.7553)">
      <path
         d="M 0,267.652 H 657.887 V 858.894 H 0 Z"
         style="fill:#ffffff;fill-opacity:1;fill-rule:nonzero;stroke:none"
         id="path22" />
      <g
         id="g30"
         transform="scale(0.972011,1)">
        <path
           d="m 1286.046,417.313 v 2.664"
           style="fill:none;stroke:#000000;stroke-width:0.633983;stroke-linecap:butt;stroke-linejoin:round;stroke-miterlimit:10;stroke-dasharray:none;stroke-opacity:1"
           id="path32" />
      </g>
      <g
         id="g34"
         transform="scale(0.972011,1)">
        <path
           d="m 825.644,3.551 h -2.889"
           style="fill:none;stroke:#000000;stroke-width:0.633983;stroke-linecap:butt;stroke-linejoin:round;stroke-miterlimit:10;stroke-dasharray:none;stroke-opacity:1"
           id="path36" />
      </g>
    </g>
    <g
       id="g1211">
      <text
         transform="matrix(0.35277777,0,0,0.35277777,231.13833,24.237332)"
         style="font-variant:normal;font-weight:normal;font-size:10px;font-family:Verdana;-inkscape-font-specification:Verdana;writing-mode:lr-tb;fill:#000000;fill-opacity:1;fill-rule:nonzero;stroke:none"
         id="text26"><tspan
           x="0"
           y="0"
           id="tspan24">t</tspan></text>
      <path
         d="m 1030.719,443.473 h 9.726 c 0.766,0 2.86,0 2.86,-1.895 0,-1.348 -1.231,-1.348 -2.34,-1.348 h -16.235 c -1.109,0 -3.382,0 -5.937,2.637 -1.926,2.012 -3.555,4.649 -3.555,4.977 0,0.058 0,0.562 0.696,0.562 0.472,0 0.582,-0.222 0.933,-0.609 2.852,-4.324 6.172,-4.324 7.391,-4.324 h 4.781 l -5.648,17.871 c -0.243,0.679 -0.582,1.851 -0.582,2.074 0,0.559 0.402,1.461 1.691,1.461 1.859,0 2.152,-1.508 2.324,-2.352 z"
         style="fill:#000000;fill-opacity:1;fill-rule:evenodd;stroke:none"
         id="path28"
         transform="matrix(0.35277777,0,0,0.35277777,-16.690325,-215.7553)" />
      <text
         transform="matrix(0.34901994,0,0,0.35657605,-16.690325,-215.7553)"
         style="font-variant:normal;font-weight:normal;font-size:18.5083px;font-family:Verdana;-inkscape-font-specification:Verdana;writing-mode:lr-tb;fill:#000000;fill-opacity:1;fill-rule:nonzero;stroke:none;stroke-width:0.989348"
         id="text40"
         x="631.63757"
         y="277.67148"><tspan
           x="631.63757 643.39032 649.25745"
           y="277.67148"
           sodipodi:role="line"
           id="tspan38"
           style="stroke-width:0.989348">1.0</tspan></text>
      <g
         id="g1039"
         transform="translate(-51.028617,93.168962)">
        <g
           id="g42"
           transform="matrix(0.35277777,0,0,0.35277777,-16.690325,-215.7553)">
          <g
             id="g44"
             clip-path="url(#clipPath48)">
            <g
               id="g50">
              <g
                 id="g52">
                <g
                   id="g54"
                   clip-path="url(#clipPath58)">
                  <g
                     id="g60">
                    <g
                       id="g62"
                       transform="scale(1,-0.949072)">
                      <path
                         d="m 765.242,-15.986 52.207,-56.544 8.953,-13.858 19.688,-32.676 23.629,-43.537 28.355,-55.548 17.016,-33.326 37.426,-69.439 22.457,-36.462 12.351,-17.703 12.969,-16.529 13.617,-14.932 14.297,-12.85 15.016,-10.166"
                         style="fill:none;stroke:#1f77b4;stroke-width:4.01;stroke-linecap:square;stroke-linejoin:round;stroke-miterlimit:10;stroke-dasharray:none;stroke-opacity:1"
                         id="path64" />
                    </g>
                  </g>
                </g>
              </g>
            </g>
            <g
               id="g66">
              <g
                 id="g68">
                <g
                   id="g70"
                   clip-path="url(#clipPath74)">
                  <g
                     id="g76">
                    <g
                       id="g78"
                       transform="scale(1,-0.949072)">
                      <path
                         d="m 765.242,-4.783 3.727,-0.214 4.101,-0.267 4.516,-0.317 4.961,-0.387 5.461,-0.465 6.008,-0.564 6.605,-0.683 7.266,-0.823 7.996,-0.992 8.793,-1.202 9.672,-1.449 10.64,-1.745 11.703,-2.103 12.875,-2.536 14.164,-3.049 15.579,-3.668 17.136,-4.395 18.848,-5.265 20.734,-6.289 22.809,-7.499 25.09,-8.907 27.597,-10.536 30.356,-12.409 33.394,-14.529 36.731,-16.884 40.406,-19.455 44.449,-22.177 48.891,-24.938 42.844,-21.974"
                         style="fill:none;stroke:#ff7f0e;stroke-width:4.01;stroke-linecap:square;stroke-linejoin:round;stroke-miterlimit:10;stroke-dasharray:none;stroke-opacity:1"
                         id="path80" />
                    </g>
                  </g>
                </g>
              </g>
            </g>
          </g>
        </g>
        <g
           id="g82"
           transform="matrix(0.35277777,0,0,0.35277777,-16.690325,-215.7553)">
          <g
             id="g84"
             transform="scale(0.972011,1)">
            <path
               d="M 825.644,417.313 V 3.551"
               style="fill:none;stroke:#000000;stroke-width:0.633983;stroke-linecap:square;stroke-linejoin:miter;stroke-miterlimit:10;stroke-dasharray:none;stroke-opacity:1"
               id="path86" />
          </g>
          <g
             id="g88"
             transform="scale(0.972011,1)">
            <path
               d="M 1286.046,417.313 V 3.551"
               style="fill:none;stroke:#000000;stroke-width:0.633983;stroke-linecap:square;stroke-linejoin:miter;stroke-miterlimit:10;stroke-dasharray:none;stroke-opacity:1"
               id="path90" />
          </g>
          <g
             id="g92"
             transform="scale(0.972011,1)">
            <path
               d="m 825.644,417.313 h 460.402"
               style="fill:none;stroke:#000000;stroke-width:0.633983;stroke-linecap:square;stroke-linejoin:miter;stroke-miterlimit:10;stroke-dasharray:none;stroke-opacity:1"
               id="path94" />
          </g>
          <g
             id="g96"
             transform="scale(0.972011,1)">
            <path
               d="m 825.644,3.551 h 460.402"
               style="fill:none;stroke:#000000;stroke-width:0.633983;stroke-linecap:square;stroke-linejoin:miter;stroke-miterlimit:10;stroke-dasharray:none;stroke-opacity:1"
               id="path98" />
          </g>
          <path
             d="m 1185.473,57.992 h 58.406 c 1.293,0 1.937,-1.039 1.937,-3.117 V 10.699 c 0,-2.078 -0.644,-3.117 -1.937,-3.117 h -58.406 c -1.293,0 -1.942,1.039 -1.942,3.117 v 44.176 c 0,2.078 0.649,3.117 1.942,3.117 z"
             style="fill:#ffffff;fill-opacity:0.8;fill-rule:nonzero;stroke:none"
             id="path100" />
          <g
             id="g102"
             transform="scale(0.972011,1)">
            <path
               d="m 1219.608,57.992 h 60.088 c 1.33,0 1.994,-1.039 1.994,-3.117 V 10.699 c 0,-2.078 -0.664,-3.117 -1.994,-3.117 h -60.088 c -1.33,0 -1.997,1.039 -1.997,3.117 v 44.176 c 0,2.078 0.667,3.117 1.997,3.117 z"
               style="fill:none;stroke:#cccccc;stroke-width:1.24704;stroke-linecap:butt;stroke-linejoin:miter;stroke-miterlimit:10;stroke-dasharray:none;stroke-opacity:0.8"
               id="path104" />
          </g>
          <g
             id="g106"
             transform="scale(0.972011,1)">
            <path
               d="m 1221.606,20.195 h 19.953"
               style="fill:none;stroke:#1f77b4;stroke-width:6.23517;stroke-linecap:square;stroke-linejoin:round;stroke-miterlimit:10;stroke-dasharray:none;stroke-opacity:1"
               id="path108" />
          </g>
          <text
             transform="matrix(0.62233058,0,0,1,1214.5694,25.65159)"
             style="font-variant:normal;font-weight:normal;font-size:15.5849px;font-family:Verdana;-inkscape-font-specification:Verdana;writing-mode:lr-tb;fill:#000000;fill-opacity:1;fill-rule:nonzero;stroke:none"
             id="text112"><tspan
               x="0 13.434181 24.312439 34.988094"
               y="0"
               sodipodi:role="line"
               id="tspan110">MCBF</tspan></text>
          <g
             id="g114"
             transform="scale(0.972011,1)">
            <path
               d="m 1221.606,43.063 h 19.953"
               style="fill:none;stroke:#ff7f0e;stroke-width:6.23517;stroke-linecap:square;stroke-linejoin:round;stroke-miterlimit:10;stroke-dasharray:none;stroke-opacity:1"
               id="path116" />
          </g>
          <text
             transform="matrix(0.62233058,0,0,1,1214.5694,48.517575)"
             style="font-variant:normal;font-weight:normal;font-size:15.5849px;font-family:Verdana;-inkscape-font-specification:Verdana;writing-mode:lr-tb;fill:#000000;fill-opacity:1;fill-rule:nonzero;stroke:none"
             id="text120"><tspan
               x="0 10.644485 22.644855 27.226814"
               y="0"
               sodipodi:role="line"
               id="tspan118">ADIA</tspan></text>
          <path
             d="M 1061.469,302.023 H 1234 v 86.457 h -172.531 z"
             style="fill:#ffffff;fill-opacity:1;fill-rule:nonzero;stroke:none"
             id="path122" />
          <g
             id="g124"
             transform="scale(0.972011,1)">
            <path
               d="m 1100.103,388.48 v 2.454"
               style="fill:none;stroke:#000000;stroke-width:0.559857;stroke-linecap:butt;stroke-linejoin:round;stroke-miterlimit:10;stroke-dasharray:none;stroke-opacity:1"
               id="path126" />
          </g>
          <text
             transform="matrix(0.97201101,0,0,1,1063.9018,398.69549)"
             style="font-variant:normal;font-weight:normal;font-size:6.99822px;font-family:Verdana;-inkscape-font-specification:Verdana;writing-mode:lr-tb;fill:#000000;fill-opacity:1;fill-rule:nonzero;stroke:none"
             id="text130"><tspan
               x="0 4.4438677 6.6623025"
               y="0"
               sodipodi:role="line"
               id="tspan128">0.0</tspan></text>
          <g
             id="g132"
             transform="scale(0.972011,1)">
            <path
               d="m 1129.569,388.48 v 2.454"
               style="fill:none;stroke:#000000;stroke-width:0.559857;stroke-linecap:butt;stroke-linejoin:round;stroke-miterlimit:10;stroke-dasharray:none;stroke-opacity:1"
               id="path134" />
          </g>
          <text
             transform="matrix(0.97201101,0,0,1,1092.5426,398.69549)"
             style="font-variant:normal;font-weight:normal;font-size:6.99822px;font-family:Verdana;-inkscape-font-specification:Verdana;writing-mode:lr-tb;fill:#000000;fill-opacity:1;fill-rule:nonzero;stroke:none"
             id="text138"><tspan
               x="0 4.4438677 6.6623025"
               y="0"
               sodipodi:role="line"
               id="tspan136">0.5</tspan></text>
          <g
             id="g140"
             transform="scale(0.972011,1)">
            <path
               d="m 1159.034,388.48 v 2.454"
               style="fill:none;stroke:#000000;stroke-width:0.559857;stroke-linecap:butt;stroke-linejoin:round;stroke-miterlimit:10;stroke-dasharray:none;stroke-opacity:1"
               id="path142" />
          </g>
          <text
             transform="matrix(0.97201101,0,0,1,1121.1834,398.69549)"
             style="font-variant:normal;font-weight:normal;font-size:6.99822px;font-family:Verdana;-inkscape-font-specification:Verdana;writing-mode:lr-tb;fill:#000000;fill-opacity:1;fill-rule:nonzero;stroke:none"
             id="text146"><tspan
               x="0 4.4438677 6.6623025"
               y="0"
               sodipodi:role="line"
               id="tspan144">1.0</tspan></text>
          <g
             id="g148"
             transform="scale(0.972011,1)">
            <path
               d="m 1188.499,388.48 v 2.454"
               style="fill:none;stroke:#000000;stroke-width:0.559857;stroke-linecap:butt;stroke-linejoin:round;stroke-miterlimit:10;stroke-dasharray:none;stroke-opacity:1"
               id="path150" />
          </g>
          <text
             transform="matrix(0.97201101,0,0,1,1149.8242,398.69549)"
             style="font-variant:normal;font-weight:normal;font-size:6.99822px;font-family:Verdana;-inkscape-font-specification:Verdana;writing-mode:lr-tb;fill:#000000;fill-opacity:1;fill-rule:nonzero;stroke:none"
             id="text154"><tspan
               x="0 4.4438677 6.6623025"
               y="0"
               sodipodi:role="line"
               id="tspan152">1.5</tspan></text>
          <g
             id="g156"
             transform="scale(0.972011,1)">
            <path
               d="m 1217.965,388.48 v 2.454"
               style="fill:none;stroke:#000000;stroke-width:0.559857;stroke-linecap:butt;stroke-linejoin:round;stroke-miterlimit:10;stroke-dasharray:none;stroke-opacity:1"
               id="path158" />
          </g>
          <text
             transform="matrix(0.97201101,0,0,1,1178.465,398.69549)"
             style="font-variant:normal;font-weight:normal;font-size:6.99822px;font-family:Verdana;-inkscape-font-specification:Verdana;writing-mode:lr-tb;fill:#000000;fill-opacity:1;fill-rule:nonzero;stroke:none"
             id="text162"><tspan
               x="0 4.4438677 6.6623025"
               y="0"
               sodipodi:role="line"
               id="tspan160">2.0</tspan></text>
          <g
             id="g164"
             transform="scale(0.972011,1)">
            <path
               d="m 1247.43,388.48 v 2.454"
               style="fill:none;stroke:#000000;stroke-width:0.559857;stroke-linecap:butt;stroke-linejoin:round;stroke-miterlimit:10;stroke-dasharray:none;stroke-opacity:1"
               id="path166" />
          </g>
          <text
             transform="matrix(0.97201101,0,0,1,1207.1058,398.69549)"
             style="font-variant:normal;font-weight:normal;font-size:6.99822px;font-family:Verdana;-inkscape-font-specification:Verdana;writing-mode:lr-tb;fill:#000000;fill-opacity:1;fill-rule:nonzero;stroke:none"
             id="text170"><tspan
               x="0 4.4438677 6.6623025"
               y="0"
               sodipodi:role="line"
               id="tspan168">2.5</tspan></text>
          <g
             id="g172"
             transform="scale(0.972011,1)">
            <path
               d="m 1092.034,374.727 h -2.448"
               style="fill:none;stroke:#000000;stroke-width:0.559857;stroke-linecap:butt;stroke-linejoin:round;stroke-miterlimit:10;stroke-dasharray:none;stroke-opacity:1"
               id="path174" />
          </g>
          <g
             id="g176"
             transform="scale(0.972011,1)">
            <path
               d="m 1092.034,355.078 h -2.448"
               style="fill:none;stroke:#000000;stroke-width:0.559857;stroke-linecap:butt;stroke-linejoin:round;stroke-miterlimit:10;stroke-dasharray:none;stroke-opacity:1"
               id="path178" />
          </g>
          <g
             id="g180"
             transform="scale(0.972011,1)">
            <path
               d="m 1092.034,335.426 h -2.448"
               style="fill:none;stroke:#000000;stroke-width:0.559857;stroke-linecap:butt;stroke-linejoin:round;stroke-miterlimit:10;stroke-dasharray:none;stroke-opacity:1"
               id="path182" />
          </g>
          <g
             id="g184"
             transform="scale(0.972011,1)">
            <path
               d="m 1092.034,315.777 h -2.448"
               style="fill:none;stroke:#000000;stroke-width:0.559857;stroke-linecap:butt;stroke-linejoin:round;stroke-miterlimit:10;stroke-dasharray:none;stroke-opacity:1"
               id="path186" />
          </g>
          <g
             id="g188"
             transform="scale(0.972011,1)">
            <path
               d="m 1100.103,384.551 1.628,-0.793 3.263,-1.586 1.628,-0.797 1.631,-0.793 1.628,-0.793 1.631,-0.793 1.628,-0.797 3.263,-1.586 1.628,-0.793 1.631,-0.797 1.628,-0.793 3.263,-1.585 1.628,-0.797 1.631,-0.793 1.628,-0.793 1.632,-0.793 1.631,-0.797 1.628,-0.793 1.631,-0.793 1.628,-0.793 1.632,-0.797 1.627,-0.793 3.263,-1.586 1.628,-0.797 1.632,-0.793 1.627,-0.793 1.632,-0.793 1.631,-0.796 1.628,-0.793 1.632,-0.793 1.627,-0.793 1.632,-0.797 1.627,-0.793 3.264,-1.586 1.627,-0.797 1.632,-0.793 1.627,-0.793 3.264,-1.586 1.627,-0.797 1.632,-0.793 1.627,-0.793 1.632,-0.793 1.627,-0.797 3.264,-1.585 1.627,-0.793 1.632,-0.797 1.627,-0.793 3.264,-1.586 1.627,-0.797 1.632,-0.793 1.627,-0.793 1.632,-0.793 1.628,-0.797 3.263,-1.586 1.627,-0.793 1.632,-0.797 1.628,-0.793 3.263,-1.586 1.627,-0.796 1.632,-0.793 1.628,-0.793 1.631,-0.793 1.632,-0.797 1.627,-0.793 1.632,-0.793 1.628,-0.793 1.631,-0.797 1.628,-0.793 3.263,-1.586 1.628,-0.797 1.631,-0.793 1.628,-0.793 1.631,-0.793 1.632,-0.797 1.628,-0.793 1.631,-0.793 1.628,-0.792 1.631,-0.797 1.628,-0.793 3.263,-1.586 1.628,-0.797 1.631,-0.793 1.628,-0.793 1.632,-0.793 1.631,-0.797 1.628,-0.793 1.631,-0.793"
               style="fill:none;stroke:#0000ff;stroke-width:1.04973;stroke-linecap:square;stroke-linejoin:round;stroke-miterlimit:10;stroke-dasharray:none;stroke-opacity:1"
               id="path190" />
          </g>
          <g
             id="g192"
             transform="scale(0.972011,1)">
            <path
               d="M 1092.034,388.48 V 302.023"
               style="fill:none;stroke:#000000;stroke-width:0.559857;stroke-linecap:square;stroke-linejoin:miter;stroke-miterlimit:10;stroke-dasharray:none;stroke-opacity:1"
               id="path194" />
          </g>
          <g
             id="g196"
             transform="scale(0.972011,1)">
            <path
               d="M 1269.533,388.48 V 302.023"
               style="fill:none;stroke:#000000;stroke-width:0.559857;stroke-linecap:square;stroke-linejoin:miter;stroke-miterlimit:10;stroke-dasharray:none;stroke-opacity:1"
               id="path198" />
          </g>
          <g
             id="g200"
             transform="scale(0.972011,1)">
            <path
               d="m 1092.034,388.48 h 177.499"
               style="fill:none;stroke:#000000;stroke-width:0.559857;stroke-linecap:square;stroke-linejoin:miter;stroke-miterlimit:10;stroke-dasharray:none;stroke-opacity:1"
               id="path202" />
          </g>
          <g
             id="g204"
             transform="scale(0.972011,1)">
            <path
               d="m 1092.034,302.023 h 177.499"
               style="fill:none;stroke:#000000;stroke-width:0.559857;stroke-linecap:square;stroke-linejoin:miter;stroke-miterlimit:10;stroke-dasharray:none;stroke-opacity:1"
               id="path206" />
          </g>
          <text
             transform="matrix(0.81371119,0,0,1,1137.0197,299.01259)"
             style="font-variant:normal;font-weight:normal;font-size:11.3297px;font-family:Verdana;-inkscape-font-specification:Verdana;writing-mode:lr-tb;fill:#000000;fill-opacity:1;fill-rule:nonzero;stroke:none"
             id="text210"><tspan
               x="0 7.7381692 16.462021 21.220486"
               y="0"
               sodipodi:role="line"
               id="tspan208">ADIA</tspan></text>
          <g
             id="g212"
             transform="scale(0.972011,1)">
            <path
               d="m 1099.175,306.188 1.632,0.792 1.627,0.797 1.632,0.793 1.627,0.793 1.632,0.793 1.632,0.797 1.627,0.793 1.632,0.793 1.627,0.793 1.632,0.797 1.627,0.793 3.264,1.586 1.627,0.797 1.632,0.793 1.627,0.793 1.632,0.793 1.632,0.796 1.627,0.793 1.632,0.793 1.627,0.793 1.632,0.797 1.628,0.793 3.263,1.586 1.627,0.797 1.632,0.793 1.628,0.793 1.631,0.793 1.632,0.797 1.627,0.793 1.632,0.793 1.628,0.793 1.631,0.797 1.628,0.793 3.263,1.586 1.628,0.796 1.631,0.793 1.628,0.793 1.631,0.793 1.632,0.797 1.628,0.793 1.631,0.793 1.628,0.793 1.631,0.797 1.628,0.793 3.263,1.586 1.628,0.793 1.631,0.797 1.628,0.793 3.263,1.586 1.628,0.796 1.631,0.793 1.628,0.793 1.632,0.793 1.631,0.797 1.628,0.793 1.631,0.793 1.628,0.793 1.632,0.797 1.627,0.793 3.263,1.586 1.628,0.797 1.632,0.793 1.627,0.793 1.632,0.793 1.631,0.797 1.628,0.793 1.632,0.793 1.627,0.793 1.632,0.796 1.627,0.793 3.263,1.586 1.628,0.797 1.632,0.793 1.627,0.793 1.632,0.793 1.631,0.797 1.628,0.793 1.632,0.793 1.627,0.793 1.632,0.797 1.627,0.793 3.264,1.586 1.627,0.797 1.632,0.792 1.627,0.793 1.632,0.793 1.632,0.797 1.627,0.793 1.632,0.793 1.627,0.793 1.632,0.797"
               style="fill:none;stroke:#008000;stroke-width:1.04973;stroke-linecap:square;stroke-linejoin:round;stroke-miterlimit:10;stroke-dasharray:none;stroke-opacity:1"
               id="path214" />
          </g>
          <path
             d="m 1061.336,183.492 h 172.531 v 86.461 h -172.531 z"
             style="fill:#ffffff;fill-opacity:1;fill-rule:nonzero;stroke:none"
             id="path216" />
          <g
             id="g218"
             transform="scale(0.972011,1)">
            <path
               d="m 1091.897,269.953 v 2.449"
               style="fill:none;stroke:#000000;stroke-width:0.559857;stroke-linecap:butt;stroke-linejoin:round;stroke-miterlimit:10;stroke-dasharray:none;stroke-opacity:1"
               id="path220" />
          </g>
          <text
             transform="matrix(0.97201101,0,0,1,1055.9252,280.16499)"
             style="font-variant:normal;font-weight:normal;font-size:6.99822px;font-family:Verdana;-inkscape-font-specification:Verdana;writing-mode:lr-tb;fill:#000000;fill-opacity:1;fill-rule:nonzero;stroke:none"
             id="text224"><tspan
               x="0 4.4438677 6.6623025"
               y="0"
               sodipodi:role="line"
               id="tspan222">0.0</tspan></text>
          <g
             id="g226"
             transform="scale(0.972011,1)">
            <path
               d="m 1133.889,269.953 v 2.449"
               style="fill:none;stroke:#000000;stroke-width:0.559857;stroke-linecap:butt;stroke-linejoin:round;stroke-miterlimit:10;stroke-dasharray:none;stroke-opacity:1"
               id="path228" />
          </g>
          <text
             transform="matrix(0.97201101,0,0,1,1096.7419,280.16499)"
             style="font-variant:normal;font-weight:normal;font-size:6.99822px;font-family:Verdana;-inkscape-font-specification:Verdana;writing-mode:lr-tb;fill:#000000;fill-opacity:1;fill-rule:nonzero;stroke:none"
             id="text232"><tspan
               x="0 4.4438677 6.6623025"
               y="0"
               sodipodi:role="line"
               id="tspan230">0.1</tspan></text>
          <g
             id="g234"
             transform="scale(0.972011,1)">
            <path
               d="m 1175.88,269.953 v 2.449"
               style="fill:none;stroke:#000000;stroke-width:0.559857;stroke-linecap:butt;stroke-linejoin:round;stroke-miterlimit:10;stroke-dasharray:none;stroke-opacity:1"
               id="path236" />
          </g>
          <text
             transform="matrix(0.97201101,0,0,1,1137.5587,280.16499)"
             style="font-variant:normal;font-weight:normal;font-size:6.99822px;font-family:Verdana;-inkscape-font-specification:Verdana;writing-mode:lr-tb;fill:#000000;fill-opacity:1;fill-rule:nonzero;stroke:none"
             id="text240"><tspan
               x="0 4.4438677 6.6623025"
               y="0"
               sodipodi:role="line"
               id="tspan238">0.2</tspan></text>
          <g
             id="g242"
             transform="scale(0.972011,1)">
            <path
               d="m 1217.872,269.953 v 2.449"
               style="fill:none;stroke:#000000;stroke-width:0.559857;stroke-linecap:butt;stroke-linejoin:round;stroke-miterlimit:10;stroke-dasharray:none;stroke-opacity:1"
               id="path244" />
          </g>
          <text
             transform="matrix(0.97201101,0,0,1,1178.3755,280.16499)"
             style="font-variant:normal;font-weight:normal;font-size:6.99822px;font-family:Verdana;-inkscape-font-specification:Verdana;writing-mode:lr-tb;fill:#000000;fill-opacity:1;fill-rule:nonzero;stroke:none"
             id="text248"><tspan
               x="0 4.4438677 6.6623025"
               y="0"
               sodipodi:role="line"
               id="tspan246">0.3</tspan></text>
          <g
             id="g250"
             transform="scale(0.972011,1)">
            <path
               d="m 1259.864,269.953 v 2.449"
               style="fill:none;stroke:#000000;stroke-width:0.559857;stroke-linecap:butt;stroke-linejoin:round;stroke-miterlimit:10;stroke-dasharray:none;stroke-opacity:1"
               id="path252" />
          </g>
          <text
             transform="matrix(0.97201101,0,0,1,1219.1922,280.16499)"
             style="font-variant:normal;font-weight:normal;font-size:6.99822px;font-family:Verdana;-inkscape-font-specification:Verdana;writing-mode:lr-tb;fill:#000000;fill-opacity:1;fill-rule:nonzero;stroke:none"
             id="text256"><tspan
               x="0 4.4438677 6.6623025"
               y="0"
               sodipodi:role="line"
               id="tspan254">0.4</tspan></text>
          <g
             id="g258"
             transform="scale(0.972011,1)">
            <path
               d="m 1091.897,266.023 h -2.451"
               style="fill:none;stroke:#000000;stroke-width:0.559857;stroke-linecap:butt;stroke-linejoin:round;stroke-miterlimit:10;stroke-dasharray:none;stroke-opacity:1"
               id="path260" />
          </g>
          <g
             id="g262"
             transform="scale(0.972011,1)">
            <path
               d="m 1091.897,250.301 h -2.451"
               style="fill:none;stroke:#000000;stroke-width:0.559857;stroke-linecap:butt;stroke-linejoin:round;stroke-miterlimit:10;stroke-dasharray:none;stroke-opacity:1"
               id="path264" />
          </g>
          <g
             id="g266"
             transform="scale(0.972011,1)">
            <path
               d="m 1091.897,234.582 h -2.451"
               style="fill:none;stroke:#000000;stroke-width:0.559857;stroke-linecap:butt;stroke-linejoin:round;stroke-miterlimit:10;stroke-dasharray:none;stroke-opacity:1"
               id="path268" />
          </g>
          <g
             id="g270"
             transform="scale(0.972011,1)">
            <path
               d="m 1091.897,218.863 h -2.451"
               style="fill:none;stroke:#000000;stroke-width:0.559857;stroke-linecap:butt;stroke-linejoin:round;stroke-miterlimit:10;stroke-dasharray:none;stroke-opacity:1"
               id="path272" />
          </g>
          <g
             id="g274"
             transform="scale(0.972011,1)">
            <path
               d="m 1091.897,203.141 h -2.451"
               style="fill:none;stroke:#000000;stroke-width:0.559857;stroke-linecap:butt;stroke-linejoin:round;stroke-miterlimit:10;stroke-dasharray:none;stroke-opacity:1"
               id="path276" />
          </g>
          <g
             id="g278"
             transform="scale(0.972011,1)">
            <path
               d="m 1091.897,187.422 h -2.451"
               style="fill:none;stroke:#000000;stroke-width:0.559857;stroke-linecap:butt;stroke-linejoin:round;stroke-miterlimit:10;stroke-dasharray:none;stroke-opacity:1"
               id="path280" />
          </g>
          <g
             id="g282"
             transform="scale(0.972011,1)">
            <path
               d="m 1091.897,187.43 v 0.05 h 3.697 v 0.02 h 3.697 v -0.039 h 3.698 v 0.023 h 3.697 v -0.046 h 3.701 v 0.093 h 3.697 v 0.059 h 3.698 v 0.062 h 3.697 v -0.222 h 3.697 v 0.043 h 3.697 v 0.101 h 3.702 v -0.097 h 3.697 v -0.02 h 3.697 v -0.023 h 3.697 v 0.039 h 3.698 v 0.066 h 3.701 v -0.086 h 3.697 v -0.004 h 3.697 v 0.008 h 3.697 v -0.035 h 7.395 v 0.109 h 3.701 v -0.047 h 3.697 v 0.039 h 3.698 v -0.043 h 3.697 v -0.039 h 3.697 v 0.055 h 3.697 v 0.012 h 3.702 V 187.5 h 3.697 v 0.691 h 3.697 v -0.617 h 3.697 v -0.125 h 3.698 v 2.25 h 3.697 v 75.727 h 3.701 v -0.321 h 3.697 v 0.911 h 3.697 v -0.473 h 3.698 v 0.461 h 3.697 v -0.481 h 3.697 v 0.442 h 3.701 v -0.067 h 3.698 v -0.003 h 3.697 v -0.047 h 3.697 v 0.031 h 3.697 v -0.059 h 3.698 v 0.063 h 3.701 v 0.074 h 3.697"
               style="fill:none;stroke:#0000ff;stroke-width:1.04973;stroke-linecap:square;stroke-linejoin:round;stroke-miterlimit:10;stroke-dasharray:none;stroke-opacity:1"
               id="path284" />
          </g>
          <g
             id="g286"
             transform="scale(0.972011,1)">
            <path
               d="M 1091.897,269.953 V 183.492"
               style="fill:none;stroke:#000000;stroke-width:0.559857;stroke-linecap:square;stroke-linejoin:miter;stroke-miterlimit:10;stroke-dasharray:none;stroke-opacity:1"
               id="path288" />
          </g>
          <g
             id="g290"
             transform="scale(0.972011,1)">
            <path
               d="M 1269.396,269.953 V 183.492"
               style="fill:none;stroke:#000000;stroke-width:0.559857;stroke-linecap:square;stroke-linejoin:miter;stroke-miterlimit:10;stroke-dasharray:none;stroke-opacity:1"
               id="path292" />
          </g>
          <g
             id="g294"
             transform="scale(0.972011,1)">
            <path
               d="m 1091.897,269.953 h 177.499"
               style="fill:none;stroke:#000000;stroke-width:0.559857;stroke-linecap:square;stroke-linejoin:miter;stroke-miterlimit:10;stroke-dasharray:none;stroke-opacity:1"
               id="path296" />
          </g>
          <g
             id="g298"
             transform="scale(0.972011,1)">
            <path
               d="m 1091.897,183.492 h 177.499"
               style="fill:none;stroke:#000000;stroke-width:0.559857;stroke-linecap:square;stroke-linejoin:miter;stroke-miterlimit:10;stroke-dasharray:none;stroke-opacity:1"
               id="path300" />
          </g>
          <text
             transform="matrix(0.82850825,0,0,1,1136.2887,179.24746)"
             style="font-variant:normal;font-weight:normal;font-size:10.4814px;font-family:Verdana;-inkscape-font-specification:Verdana;writing-mode:lr-tb;fill:#000000;fill-opacity:1;fill-rule:nonzero;stroke:none"
             id="text304"><tspan
               x="0 9.0350037 16.351051 23.53084"
               y="0"
               sodipodi:role="line"
               id="tspan302">MCBF</tspan></text>
          <g
             id="g306"
             transform="scale(0.972011,1)">
            <path
               d="m 1093.014,266.801 v -0.332 h 3.697 v 0.527 h 3.698 v -77.754 h 3.701 v -0.582 h 3.697 v 0.063 h 3.697 v -0.137 h 3.698 v 0.117 h 3.697 v -0.101 h 3.697 v 0.066 h 3.701 v -0.078 h 3.698 v -0.039 h 3.697 v -0.067 h 3.697 v 0.008 h 3.697 v -0.004 h 3.698 v 0.356 h 3.701 v -0.281 h 3.697 v 0.019 h 3.697 v -0.019 h 3.697 V 188.5 h 3.698 v 0.012 h 3.697 v -0.004 h 3.701 v -0.02 h 3.697 v 0.117 h 3.698 v -0.031 h 3.697 v -0.039 h 3.697 v -0.047 h 7.399 v 0.067 h 3.697 v 0.047 h 3.697 v -0.094 h 3.697 v 0.031 h 3.698 v -0.051 h 7.398 v 0.043 h 3.697 v 0.004 h 3.697 v 0.024 h 3.698 v -0.082 h 7.398 v 0.125 h 3.697 v 0.007 h 3.698 v -0.121 h 3.697 v 0.043 h 3.697 v 0.133 h 3.697 v -0.184 h 3.702 v 0.04 h 3.697 v 0.089 h 3.697 v -0.035 h 3.697"
               style="fill:none;stroke:#008000;stroke-width:1.04973;stroke-linecap:square;stroke-linejoin:round;stroke-miterlimit:10;stroke-dasharray:none;stroke-opacity:1"
               id="path308" />
          </g>
          <text
             transform="matrix(0.97201109,0,0,1,1044.8791,231.16198)"
             style="font-variant:normal;font-weight:normal;font-size:6.99824px;font-family:Verdana;-inkscape-font-specification:Verdana;writing-mode:lr-tb;fill:#000000;fill-opacity:1;fill-rule:nonzero;stroke:none"
             id="text312"><tspan
               x="0 4.4438801 6.9842396"
               y="0"
               sodipodi:role="line"
               id="tspan310">0.5</tspan></text>
          <text
             transform="matrix(0.972011,0,0,1,1044.3161,190.44011)"
             style="font-variant:normal;font-weight:normal;font-size:7.71564px;font-family:Verdana;-inkscape-font-specification:Verdana;writing-mode:lr-tb;fill:#000000;fill-opacity:1;fill-rule:nonzero;stroke:none"
             id="text316"><tspan
               x="0 4.8994303 7.7002068"
               y="0"
               sodipodi:role="line"
               id="tspan314">1.0</tspan></text>
          <text
             transform="matrix(0.97201109,0,0,1,1047.8858,268.2472)"
             style="font-variant:normal;font-weight:normal;font-size:6.99824px;font-family:Verdana;-inkscape-font-specification:Verdana;writing-mode:lr-tb;fill:#000000;fill-opacity:1;fill-rule:nonzero;stroke:none"
             id="text322"><tspan
               x="0"
               y="0"
               id="tspan318">0</tspan><tspan
               x="-3.0933044 1.3505756 3.8909352"
               y="81.264198"
               sodipodi:role="line"
               id="tspan320">0.5</tspan></text>
          <text
             transform="matrix(0.972011,0,0,1,1044.3161,308.78948)"
             style="font-variant:normal;font-weight:normal;font-size:7.71564px;font-family:Verdana;-inkscape-font-specification:Verdana;writing-mode:lr-tb;fill:#000000;fill-opacity:1;fill-rule:nonzero;stroke:none"
             id="text326"><tspan
               x="0 4.8994303 7.7002068"
               y="0"
               sodipodi:role="line"
               id="tspan324">1.0</tspan></text>
          <text
             transform="matrix(0.97201109,0,0,1,1047.8858,386.59656)"
             style="font-variant:normal;font-weight:normal;font-size:6.99824px;font-family:Verdana;-inkscape-font-specification:Verdana;writing-mode:lr-tb;fill:#000000;fill-opacity:1;fill-rule:nonzero;stroke:none"
             id="text332"><tspan
               x="0"
               y="0"
               id="tspan328">0</tspan><tspan
               x="99.367989"
               y="-99.57888"
               id="tspan330">t</tspan></text>
          <text
             transform="matrix(0.97201103,0,0,1,1148.0439,404.58763)"
             style="font-variant:normal;font-weight:normal;font-size:6.99826px;font-family:Verdana;-inkscape-font-specification:Verdana;writing-mode:lr-tb;fill:#000000;fill-opacity:1;fill-rule:nonzero;stroke:none"
             id="text336"><tspan
               x="0"
               y="0"
               id="tspan334">t</tspan></text>
          <path
             d="m 708.148,206.555 -0.023,0.117 -0.016,0.098 -0.046,0.171 -0.024,0.098 -0.019,0.086 v 0.063 l -0.047,0.085 -0.024,0.059 -0.023,0.063 -0.016,0.062 -0.047,0.059 -0.023,0.062 -0.039,0.031 -0.047,0.055 -0.043,0.031 -0.047,0.032 -0.043,0.023 -0.129,0.063 -0.07,0.031 h -0.043 l -0.043,0.035 h -0.09 l -0.043,0.027 h -0.129 l -0.07,0.032 h -0.414 l -0.067,0.031 h -0.371 c -0.375,0 -0.617,0 -0.617,0.57 0,0.356 0.195,0.356 0.617,0.356 h 7.246 L 713,207.969 h -2.48 c -0.305,0 -0.352,0 -0.481,-0.031 -0.219,-0.032 -0.289,-0.059 -0.289,-0.301 0,-0.09 0,-0.153 0.109,-0.692 l 3.012,-16.336 c 0.195,-1.054 0.238,-1.14 1.16,-1.14 h 2.352 c 2.129,0 3.953,1.59 3.953,5.511 0,1.446 -0.438,6.333 -2.281,9.629 -0.641,1.079 -2.375,3.36 -5.055,3.36 l 0.398,0.926 c 4.524,0 8.829,-6.293 8.829,-12.829 0,-4.199 -1.844,-7.527 -5.118,-7.527 h -7.359 c -0.414,0 -0.633,0 -0.633,0.57 0,0.36 0.196,0.36 0.613,0.36 0.286,0 0.68,0.031 0.942,0.062 0.355,0.055 0.488,0.153 0.488,0.477 0,0.117 -0.023,0.211 -0.094,0.57 z"
             style="fill:#000000;fill-opacity:1;fill-rule:evenodd;stroke:none"
             id="path338" />
          <path
             d="m 733.648,198.969 v -0.063 l -0.019,-0.031 v -0.055 h -0.024 v -0.031 h -0.023 v -0.031 h -0.023 v -0.035 h -0.043 v -0.02 h -0.067 c -0.09,0 -0.109,0.02 -0.304,0.293 l -0.75,1.172 c -0.59,-1.078 -1.563,-1.465 -2.485,-1.465 -2.152,0 -4.062,2.367 -4.062,4.762 0,0.332 0.047,1.14 0.507,1.918 0.504,0.84 1.079,1.019 2.129,1.351 0.289,0.121 1.055,0.36 1.297,0.422 0.485,0.176 1.407,0.625 1.407,2.188 0,1.711 -1.297,3.683 -3.032,3.683 -1.34,0 -2.965,-0.656 -2.965,-2.964 0,-0.211 0.02,-0.657 0.09,-1.051 0.024,-0.086 0.024,-0.086 0.024,-0.121 0,-0.27 -0.2,-0.27 -0.246,-0.27 -0.219,0 -0.243,0.031 -0.305,0.422 l -0.77,4.168 c -0.023,0.086 -0.043,0.211 -0.043,0.332 0,0.117 0.043,0.238 0.196,0.238 0.109,0 0.109,-0.031 0.308,-0.301 0.172,-0.238 0.571,-0.929 0.75,-1.167 0.809,1.23 1.996,1.468 2.918,1.468 2.305,0 4.172,-2.726 4.172,-5.187 0,-0.899 -0.285,-1.739 -0.613,-2.223 -0.527,-0.746 -0.766,-0.84 -2.746,-1.465 -0.309,-0.09 -0.813,-0.269 -0.946,-0.332 -0.394,-0.176 -1.035,-0.722 -1.035,-1.886 0,-1.649 1.364,-3.329 2.946,-3.329 1.672,0 2.461,1.289 2.461,3.266 0,0.27 -0.067,0.754 -0.067,0.934 0,0.293 0.176,0.293 0.262,0.293 0.223,0 0.242,-0.118 0.308,-0.473 z"
             style="fill:#000000;fill-opacity:1;fill-rule:evenodd;stroke:none"
             id="path340" />
          <path
             d="m 738.039,216.332 h 2.988 v -1.203 h -2.105 v -27.402 h 2.105 v -1.172 h -2.988 z"
             style="fill:#000000;fill-opacity:1;fill-rule:evenodd;stroke:none"
             id="path342" />
          <path
             d="m 752.074,188.988 v -0.062 l 0.024,-0.031 v -0.09 l 0.023,-0.032 v -0.117 l 0.024,-0.031 v -0.086 c 0,-0.305 -0.157,-0.332 -0.266,-0.332 -0.215,0 -0.238,0.063 -0.328,0.602 l -3.625,19.695 c -1.668,-0.27 -2.504,-1.379 -2.504,-3.359 0,-0.571 0,-1.348 1.183,-5.516 0.09,-0.356 0.247,-0.871 0.247,-1.465 0,-1.355 -0.704,-2.465 -1.801,-2.465 -2.067,0 -2.879,4.352 -2.879,4.59 0,0.301 0.223,0.301 0.262,0.301 0.222,0 0.246,-0.063 0.355,-0.508 0.59,-2.852 1.469,-3.723 2.215,-3.723 0.152,0 0.527,0 0.527,0.965 0,0.778 -0.218,1.528 -0.504,2.574 -1.031,3.75 -1.031,4.528 -1.031,5.008 0,2.848 1.688,4.051 3.801,4.227 -0.18,1.082 -0.18,1.137 -0.488,2.73 -0.063,0.328 -0.504,2.727 -0.504,2.821 0,0.027 0,0.296 0.265,0.296 0.043,0 0.153,0 0.2,-0.121 0.062,-0.054 0.195,-0.808 0.261,-1.226 l 0.836,-4.438 c 0.789,0 2.723,0 4.789,-3.179 0.875,-1.379 1.34,-2.668 1.578,-3.567 0.196,-0.75 0.684,-3.328 0.684,-4.648 0,-1.68 -0.598,-2.102 -0.969,-2.102 -0.547,0 -1.074,0.785 -1.074,1.442 0,0.39 0.109,0.57 0.309,0.808 0.238,0.332 0.789,1.11 0.789,2.52 0,1.918 -1.121,4.351 -1.891,5.429 -1.934,2.668 -3.316,2.668 -4.105,2.668 z"
             style="fill:#000000;fill-opacity:1;fill-rule:evenodd;stroke:none"
             id="path344" />
          <path
             d="m 763.805,216.031 v -0.093 l -0.024,-0.028 v -0.031 l -0.019,-0.031 -0.024,-0.035 v -0.02 h -0.023 v -0.031 l -0.024,-0.035 h -0.023 v -0.032 l -0.02,-0.031 -0.023,-0.027 -0.047,-0.063 v -0.031 h -0.019 l -0.024,-0.027 v -0.032 h -0.023 l -0.024,-0.031 v -0.035 h -0.023 l -0.02,-0.031 -0.023,-0.028 c -2.723,-3.746 -3.426,-9.386 -3.426,-13.941 0,-5.191 0.832,-10.348 3.512,-14.098 0.285,-0.355 0.285,-0.418 0.285,-0.507 0,-0.208 -0.086,-0.27 -0.223,-0.27 -0.215,0 -2.172,2.012 -3.468,5.785 -1.122,3.274 -1.36,6.602 -1.36,9.09 0,2.336 0.219,5.934 1.426,9.293 1.32,3.66 3.187,5.609 3.402,5.609 0.137,0 0.223,-0.093 0.223,-0.3 z"
             style="fill:#000000;fill-opacity:1;fill-rule:evenodd;stroke:none"
             id="path346" />
          <path
             d="m 771.512,197.766 h 3.668 c 0.289,0 1.078,0 1.078,-1.012 0,-0.723 -0.465,-0.723 -0.879,-0.723 h -6.125 c -0.418,0 -1.277,0 -2.242,1.41 -0.727,1.079 -1.34,2.489 -1.34,2.664 0,0.032 0,0.301 0.262,0.301 0.179,0 0.218,-0.117 0.351,-0.324 1.078,-2.316 2.328,-2.316 2.789,-2.316 h 1.805 l -2.133,9.566 c -0.09,0.363 -0.219,0.992 -0.219,1.109 0,0.301 0.153,0.786 0.637,0.786 0.703,0 0.813,-0.809 0.879,-1.262 z"
             style="fill:#000000;fill-opacity:1;fill-rule:evenodd;stroke:none"
             id="path348" />
          <path
             d="m 783.438,201.43 v -0.93 l -0.024,-0.516 -0.019,-0.504 -0.047,-0.539 -0.043,-0.574 -0.067,-0.601 -0.062,-0.594 -0.09,-0.602 -0.109,-0.632 -0.11,-0.625 -0.133,-0.629 -0.152,-0.633 -0.18,-0.625 -0.086,-0.332 -0.109,-0.332 -0.09,-0.297 -0.109,-0.332 c -1.317,-3.66 -3.203,-5.578 -3.426,-5.578 -0.133,0 -0.219,0.09 -0.219,0.269 0,0.09 0,0.153 0.418,0.692 2.153,2.968 3.383,7.707 3.383,13.914 0,5.093 -0.793,10.34 -3.516,14.093 -0.285,0.36 -0.285,0.415 -0.285,0.508 0,0.184 0.086,0.301 0.219,0.301 0.223,0 2.195,-2.043 3.496,-5.816 1.098,-3.27 1.356,-6.567 1.356,-9.086 z"
             style="fill:#000000;fill-opacity:1;fill-rule:evenodd;stroke:none"
             id="path350" />
          <path
             d="m 789.109,216.332 v -29.777 h -2.988 v 1.172 h 2.129 v 27.402 h -2.129 v 1.203 z"
             style="fill:#000000;fill-opacity:1;fill-rule:evenodd;stroke:none"
             id="path352" />
          <text
             transform="matrix(0.97880927,0,0,1,769.74233,251.94663)"
             style="font-variant:normal;font-weight:normal;font-size:18.7076px;font-family:Verdana;-inkscape-font-specification:Verdana;writing-mode:lr-tb;fill:#000000;fill-opacity:1;fill-rule:nonzero;stroke:none"
             id="text370"><tspan
               x="0 11.879306 18.670155"
               y="0"
               sodipodi:role="line"
               id="tspan354">0.4</tspan><tspan
               x="0 11.879306 18.670155"
               y="158.76117"
               sodipodi:role="line"
               id="tspan356">0.0</tspan><tspan
               x="22.850864 34.730171 41.521019"
               y="183.78596"
               sodipodi:role="line"
               id="tspan358">0.1</tspan><tspan
               x="467.4519 479.33124 486.12207"
               y="183.78609"
               sodipodi:role="line"
               id="tspan360">0.7</tspan><tspan
               x="180.52005 192.39935 199.1902 323.9697 335.849 342.63983"
               y="183.7952"
               sodipodi:role="line"
               id="tspan362">0.30.5</tspan><tspan
               x="0 11.879306 18.670155"
               y="79.358955"
               sodipodi:role="line"
               id="tspan364">0.2</tspan><tspan
               x="0 11.879306 18.670155"
               y="-79.349808"
               sodipodi:role="line"
               id="tspan366">0.6</tspan><tspan
               x="0 11.879306 18.670155"
               y="-158.66309"
               sodipodi:role="line"
               id="tspan368">0.8</tspan></text>
        </g>
      </g>
    </g>
  </g>
</svg>
